<svg viewBox="0 0 24 24" fill="none" xmlns="http://www.w3.org/2000/svg">
<path fill-rule="evenodd" clip-rule="evenodd" d="M12 0C5.37273 0 0 5.37273 0 12C0 18.6273 5.37273 24 12 24C18.6273 24 24 18.6273 24 12C24 5.37273 18.6273 0 12 0ZM8.40764 9.59236C8.20189 9.39365 7.92632 9.28369 7.64029 9.28617C7.35426 9.28866 7.08064 9.40339 6.87838 9.60565C6.67612 9.80792 6.56139 10.0815 6.5589 10.3676C6.55642 10.6536 6.66637 10.9292 6.86509 11.1349L11.2287 15.4985C11.4333 15.7031 11.7107 15.8179 12 15.8179C12.2893 15.8179 12.5667 15.7031 12.7713 15.4985L17.1349 11.1349C17.3336 10.9292 17.4436 10.6536 17.4411 10.3676C17.4386 10.0815 17.3239 9.80792 17.1216 9.60565C16.9194 9.40339 16.6457 9.28866 16.3597 9.28617C16.0737 9.28369 15.7981 9.39365 15.5924 9.59236L12 13.1847L8.40764 9.59236Z" fill="currentColor"/>
</svg>
