<svg viewBox="0 0 24 24" fill="none" xmlns="http://www.w3.org/2000/svg">
<g clip-path="url(#clip0_508_2231)">
<path d="M12.0833 23.9997C18.3426 23.9997 23.4167 18.9256 23.4167 12.6663C23.4167 6.40711 18.3426 1.33301 12.0833 1.33301C5.82411 1.33301 0.75 6.40711 0.75 12.6663C0.75 18.9256 5.82411 23.9997 12.0833 23.9997Z" fill="#F4900C"/>
<path d="M12.0833 22.6667C18.3426 22.6667 23.4167 17.5926 23.4167 11.3333C23.4167 5.07411 18.3426 0 12.0833 0C5.82411 0 0.75 5.07411 0.75 11.3333C0.75 17.5926 5.82411 22.6667 12.0833 22.6667Z" fill="#FFCC4D"/>
<path d="M12.0833 21.3337C17.238 21.3337 21.4167 17.155 21.4167 12.0003C21.4167 6.84567 17.238 2.66699 12.0833 2.66699C6.92868 2.66699 2.75 6.84567 2.75 12.0003C2.75 17.155 6.92868 21.3337 12.0833 21.3337Z" fill="#FFE8B6"/>
<path d="M12.0833 20.6667C17.238 20.6667 21.4167 16.488 21.4167 11.3333C21.4167 6.17868 17.238 2 12.0833 2C6.92868 2 2.75 6.17868 2.75 11.3333C2.75 16.488 6.92868 20.6667 12.0833 20.6667Z" fill="#FFAC33"/>
<path d="M6.44531 7.23705C6.44531 6.87372 6.80198 6.72839 6.80198 6.72839L12.054 4.26172L17.356 6.72839C17.356 6.72839 17.7213 6.80972 17.7213 7.23972V7.66705H6.44531V7.23705Z" fill="#FFE8B6"/>
<path d="M17.3669 8.55818C17.3669 8.16885 17.0303 7.85352 16.6156 7.85352H7.50028C7.08495 7.85352 6.79561 8.16885 6.79561 8.55818C6.79561 8.82285 6.93161 9.05085 7.14828 9.17152V9.61552H8.55761V9.26285H9.96695V9.61552H11.3763V9.26285H12.7856V9.61552H14.1949V9.26285H15.6043V9.61552H17.0143V9.15352C17.2256 9.02818 17.3669 8.80885 17.3669 8.55818ZM18.4236 16.0008C18.4236 16.1411 18.3679 16.2755 18.2688 16.3747C18.1696 16.4738 18.0352 16.5295 17.8949 16.5295H6.26695C6.12674 16.5295 5.99227 16.4738 5.89312 16.3747C5.79398 16.2755 5.73828 16.1411 5.73828 16.0008C5.73828 15.8606 5.79398 15.7262 5.89312 15.627C5.99227 15.5279 6.12674 15.4722 6.26695 15.4722H17.8956C18.1869 15.4722 18.4236 15.7088 18.4236 16.0008Z" fill="#F4900C"/>
<path d="M17.7205 8.13294C17.7203 8.22642 17.6831 8.31602 17.617 8.38212C17.5509 8.44822 17.4613 8.48543 17.3678 8.48561H6.79648C6.7067 8.48008 6.6224 8.44052 6.56078 8.37499C6.49915 8.30946 6.46484 8.22289 6.46484 8.13294C6.46484 8.04299 6.49915 7.95642 6.56078 7.89089C6.6224 7.82536 6.7067 7.7858 6.79648 7.78027L17.3678 7.78227C17.414 7.7821 17.4598 7.79103 17.5025 7.80857C17.5453 7.82611 17.5841 7.8519 17.6169 7.88447C17.6496 7.91704 17.6756 7.95575 17.6934 7.99839C17.7112 8.04102 17.7204 8.08675 17.7205 8.13294ZM8.20648 8.54227H15.9592V9.33294H8.20648V8.54227Z" fill="#F4900C"/>
<path d="M8.55844 13.8852C8.55844 14.2746 8.34777 14.5899 8.08844 14.5899H7.61844C7.3591 14.5899 7.14844 14.2746 7.14844 13.8852V8.54256C7.14844 8.15322 7.3591 7.83789 7.61844 7.83789H8.08844C8.34777 7.83789 8.55844 8.15322 8.55844 8.54256V13.8852ZM17.0158 13.8852C17.0158 14.2746 16.8058 14.5899 16.5458 14.5899H16.0758C15.8164 14.5899 15.6058 14.2746 15.6058 13.8852V8.54256C15.6058 8.15322 15.8158 7.83789 16.0758 7.83789H16.5458C16.8051 7.83789 17.0158 8.15322 17.0158 8.54256V13.8852ZM11.3778 13.8852C11.3778 14.2746 11.1671 14.5899 10.9078 14.5899H10.4378C10.1784 14.5899 9.96777 14.2746 9.96777 13.8852V8.54256C9.96777 8.15322 10.1784 7.83789 10.4378 7.83789H10.9078C11.1671 7.83789 11.3778 8.15322 11.3778 8.54256V13.8852ZM14.1964 13.8852C14.1964 14.2746 13.9858 14.5899 13.7264 14.5899H13.2571C12.9978 14.5899 12.7871 14.2746 12.7871 13.8852V8.54256C12.7871 8.15322 12.9978 7.83789 13.2571 7.83789H13.7264C13.9858 7.83789 14.1964 8.15322 14.1964 8.54256V13.8852Z" fill="#FFD983"/>
<path d="M17.3682 14.2379C17.3682 14.6272 17.0529 14.9425 16.6635 14.9425H7.50154C7.31465 14.9425 7.13542 14.8683 7.00327 14.7361C6.87112 14.604 6.79688 14.4248 6.79688 14.2379C6.79688 14.051 6.87112 13.8717 7.00327 13.7396C7.13542 13.6074 7.31465 13.5332 7.50154 13.5332H16.6635C17.0522 13.5332 17.3682 13.8485 17.3682 14.2379Z" fill="#FFCC4D"/>
<path d="M18.0712 14.9429C18.0712 15.3323 17.7558 15.6476 17.3665 15.6476H6.79451C6.60762 15.6476 6.42839 15.5734 6.29624 15.4412C6.16409 15.3091 6.08984 15.1298 6.08984 14.9429C6.08984 14.7561 6.16409 14.5768 6.29624 14.4447C6.42839 14.3125 6.60762 14.2383 6.79451 14.2383H17.3658C17.7552 14.2383 18.0712 14.5536 18.0712 14.9429Z" fill="#FFD983"/>
<path d="M18.4236 15.472C18.4236 15.6122 18.3679 15.7467 18.2688 15.8459C18.1696 15.945 18.0352 16.0007 17.8949 16.0007H6.26695C6.19752 16.0007 6.12878 15.987 6.06464 15.9605C6.00049 15.9339 5.94222 15.8949 5.89312 15.8459C5.84403 15.7968 5.80509 15.7385 5.77852 15.6743C5.75196 15.6102 5.73828 15.5415 5.73828 15.472C5.73828 15.4026 5.75196 15.3339 5.77852 15.2697C5.80509 15.2056 5.84403 15.1473 5.89312 15.0982C5.94222 15.0491 6.00049 15.0102 6.06464 14.9836C6.12878 14.957 6.19752 14.9434 6.26695 14.9434H17.8956C18.1869 14.9434 18.4236 15.18 18.4236 15.472Z" fill="#FFD983"/>
<path d="M17.3682 8.19099C17.3682 7.80166 17.0315 7.48633 16.6169 7.48633H7.50154C7.08621 7.48633 6.79688 7.80166 6.79688 8.19099C6.79688 8.45566 6.93288 8.68366 7.14954 8.80433V9.24833H8.55888V8.89566H9.96821V9.24833H11.3775V8.89566H12.7869V9.24833H14.1962V8.89566H15.6055V9.24833H17.0155V8.78633C17.2269 8.66099 17.3682 8.44166 17.3682 8.19099Z" fill="#FFCC4D"/>
<path d="M6.44531 7.64233C6.44531 7.27899 6.80198 7.13366 6.80198 7.13366L12.054 4.66699L17.356 7.13366C17.356 7.13366 17.7213 7.21499 17.7213 7.64499V7.83899H6.44531V7.64233Z" fill="#FFD983"/>
<path d="M12.084 5.5625C12.084 5.5625 8.44731 7.2765 8.08464 7.43117C7.72131 7.58517 7.84264 7.8385 8.08531 7.8385H16.0653C16.44 7.8385 16.3513 7.5525 16.054 7.39783C15.7566 7.24383 12.084 5.5625 12.084 5.5625Z" fill="#FFAC33"/>
<path d="M17.7205 7.83802C17.7203 7.9315 17.6831 8.0211 17.617 8.0872C17.5509 8.1533 17.4613 8.19051 17.3678 8.19069H6.79648C6.7067 8.18516 6.6224 8.1456 6.56078 8.08007C6.49915 8.01454 6.46484 7.92797 6.46484 7.83802C6.46484 7.74806 6.49915 7.6615 6.56078 7.59597C6.6224 7.53043 6.7067 7.49087 6.79648 7.48535L17.3678 7.48735C17.414 7.48718 17.4598 7.49611 17.5025 7.51365C17.5453 7.53118 17.5841 7.55698 17.6169 7.58955C17.6496 7.62212 17.6756 7.66083 17.6934 7.70347C17.7112 7.7461 17.7204 7.79182 17.7205 7.83802Z" fill="#FFD983"/>
</g>
<defs>
<clipPath id="clip0_508_2231">
<rect width="24" height="24" fill="white"/>
</clipPath>
</defs>
</svg>
