<svg viewBox="0 0 24 24" style="fill: none !important;" xmlns="http://www.w3.org/2000/svg">
<g clip-path="url(#clip0_508_2218)">
<path d="M12 9.78344V23.8279C12.4782 23.8272 12.9522 23.7388 13.3985 23.5672L22.5185 20.0116C22.9545 19.8421 23.3292 19.545 23.5936 19.1591C23.8579 18.7732 23.9996 18.3164 24 17.8486V6.73159C23.9988 6.2234 23.8301 5.72979 23.52 5.32715L12 9.78344ZM0.48 5.32715C0.16994 5.72979 0.00123656 6.2234 0 6.73159V17.8723C0.000449386 18.3401 0.142113 18.7969 0.406448 19.1828C0.670783 19.5687 1.04547 19.8658 1.48148 20.0353L10.6015 23.5909C11.0493 23.7544 11.5233 23.8348 12 23.8279V9.78344L0.48 5.32715Z" fill="#DAEDF7"/>
<path d="M12 9.78344V23.8279C12.4782 23.8272 12.9522 23.7388 13.3985 23.5672L22.5185 20.0116C22.9545 19.8421 23.3292 19.545 23.5936 19.1591C23.8579 18.7732 23.9996 18.3164 24 17.8486V6.73159C23.9988 6.2234 23.8301 5.72979 23.52 5.32715L12 9.78344ZM0.48 5.32715C0.16994 5.72979 0.00123656 6.2234 0 6.73159V17.8723C0.000449386 18.3401 0.142113 18.7969 0.406448 19.1828C0.670783 19.5687 1.04547 19.8658 1.48148 20.0353L10.6015 23.5909C11.0493 23.7544 11.5233 23.8348 12 23.8279V9.78344L0.48 5.32715Z" fill="white"/>
<path d="M22.5185 17.8427L13.3985 21.3983C12.9507 21.5619 12.4767 21.6422 12 21.6353V23.8279C12.4782 23.8272 12.9522 23.7388 13.3985 23.5672L22.5185 20.0116C22.9545 19.8422 23.3292 19.545 23.5936 19.1591C23.8579 18.7732 23.9996 18.3164 24 17.8486V15.6738C23.9991 16.1422 23.8574 16.5996 23.5932 16.9863C23.329 17.3731 22.9545 17.6715 22.5185 17.8427ZM1.48148 17.8427C1.04547 17.6715 0.67104 17.3731 0.406838 16.9863C0.142636 16.5996 0.000882959 16.1422 0 15.6738V17.8723C0.000449386 18.3401 0.142113 18.7969 0.406448 19.1828C0.670783 19.5687 1.04547 19.8659 1.48148 20.0353L10.6015 23.5909C11.0493 23.7545 11.5233 23.8348 12 23.8279V21.6353C11.5218 21.6346 11.0478 21.5462 10.6015 21.3746L1.48148 17.8427Z" fill="#DAEDF7"/>
<path d="M12 9.78344V23.8279M12 9.78344L23.52 5.32715C23.8301 5.72979 23.9988 6.2234 24 6.73159V17.8486C23.9996 18.3164 23.8579 18.7732 23.5936 19.1591C23.3292 19.545 22.9545 19.8421 22.5185 20.0116L13.3985 23.5672C12.9522 23.7388 12.4782 23.8272 12 23.8279M12 9.78344L0.48 5.32715C0.16994 5.72979 0.00123656 6.2234 0 6.73159V17.8723C0.000449386 18.3401 0.142113 18.7969 0.406448 19.1828C0.670783 19.5687 1.04547 19.8658 1.48148 20.0353L10.6015 23.5909C11.0493 23.7544 11.5233 23.8348 12 23.8279" stroke="#45413C" stroke-width="0.666667" stroke-linecap="round" stroke-linejoin="round"/>
<path d="M12.0005 9.78322L23.5205 5.32693C23.2609 4.98861 22.915 4.72657 22.519 4.56841L13.399 1.01285C12.4996 0.662382 11.5014 0.662382 10.602 1.01285L1.48195 4.56841C1.08528 4.72822 0.739224 4.99236 0.480469 5.33285L12.0005 9.78322Z" fill="white"/>
<path d="M22.519 4.56876L21.7605 4.27839L13.1857 7.58505C12.4121 7.88716 11.5533 7.88716 10.7797 7.58505L2.24047 4.27246L1.48195 4.56876C1.08528 4.72856 0.739224 4.99271 0.480469 5.3332L12.0005 9.78357L23.5205 5.32728C23.2609 4.98896 22.915 4.72692 22.519 4.56876Z" fill="#DAEDF7"/>
<path d="M12.0005 9.78322L23.5205 5.32693C23.2609 4.98861 22.915 4.72657 22.519 4.56841L13.399 1.01285C12.4996 0.662382 11.5014 0.662382 10.602 1.01285L1.48195 4.56841C1.08528 4.72822 0.739224 4.99236 0.480469 5.33285L12.0005 9.78322Z" stroke="#45413C" stroke-width="0.666667" stroke-linecap="round" stroke-linejoin="round"/>
<path d="M9.28906 5.09605C9.28906 5.4041 9.57438 5.69952 10.0823 5.91734C10.5901 6.13516 11.279 6.25753 11.9972 6.25753C12.7155 6.25753 13.4043 6.13516 13.9122 5.91734C14.42 5.69952 14.7054 5.4041 14.7054 5.09605C14.7054 4.78801 14.42 4.49258 13.9122 4.27476C13.4043 4.05694 12.7155 3.93457 11.9972 3.93457C11.279 3.93457 10.5901 4.05694 10.0823 4.27476C9.57438 4.49258 9.28906 4.78801 9.28906 5.09605Z" fill="#FF6242" stroke="#45413C" stroke-width="0.666667" stroke-linecap="round" stroke-linejoin="round"/>
<path d="M4.63319 11.7269C4.76948 12.6809 4.45541 13.5046 3.928 13.5935C3.4006 13.6824 2.85541 12.9595 2.74282 12.0054C2.63023 11.0513 2.9206 10.2276 3.448 10.1446C3.97541 10.0617 4.49689 10.7787 4.63319 11.7269ZM20.5028 9.78316C20.3665 10.7313 20.6806 11.5609 21.2139 11.6439C21.7473 11.7269 22.2806 11.0098 22.3991 10.0558C22.5176 9.10168 22.2213 8.27797 21.6939 8.19501C21.1665 8.11205 20.6391 8.82908 20.5028 9.78316ZM13.9665 19.0691C13.8302 20.0232 14.1443 20.8469 14.6776 20.9357C15.211 21.0246 15.7443 20.3017 15.8628 19.3476C15.9813 18.3935 15.685 17.5698 15.1576 17.4869C14.6302 17.4039 14.1028 18.1209 13.9665 19.0691ZM17.4036 14.4528C17.2673 15.4009 17.5873 16.2306 18.1147 16.3135C18.6421 16.3965 19.1813 15.6795 19.2999 14.7313C19.4184 13.7832 19.1162 12.9535 18.5887 12.8646C18.0613 12.7758 17.5458 13.4987 17.4036 14.4528ZM8.14134 17.1609C8.27763 18.115 7.96356 18.9387 7.43023 19.0217C6.89689 19.1046 6.36356 18.3876 6.24504 17.4395C6.12652 16.4913 6.42282 15.6617 6.95023 15.5728C7.47763 15.4839 8.00504 16.2069 8.14134 17.1609Z" fill="#656769" stroke="#45413C" stroke-width="0.666667" stroke-linecap="round" stroke-linejoin="round"/>
</g>
<defs>
<clipPath id="clip0_508_2218">
<rect width="24" height="24" fill="white"/>
</clipPath>
</defs>
</svg>
