<svg viewBox="0 0 24 24" fill="none" xmlns="http://www.w3.org/2000/svg">
<path d="M3.07359 5.94922C3.07359 5.94922 1.86422 6.04484 1.70297 6.31672C1.53984 6.58859 1.53047 7.00672 1.53047 7.46609C1.53047 7.92734 1.51172 8.98484 1.51172 8.98484L1.80047 9.60547C1.80047 9.60547 1.85484 17.5161 1.85484 17.7617C1.85484 18.0055 1.85484 18.3036 2.20734 18.493C2.55984 18.6823 11.5186 23.0098 11.798 23.1261C12.2198 23.3005 12.4205 23.2348 12.4205 23.2348L22.3748 6.58672C22.3748 6.58672 22.343 6.13109 21.9286 6.02234C21.6905 5.96234 3.07359 5.94922 3.07359 5.94922Z" fill="#F5B03E"/>
<path d="M12.3138 11.423C12.1619 11.8411 12.2313 16.1648 12.2575 19.3092C12.2838 22.4517 12.1769 23.1023 12.2575 23.2111C12.3381 23.3198 12.5575 23.2148 13.1781 22.9392C14.3313 22.4292 19.87 19.688 20.2769 19.4442C20.6838 19.2005 21.6775 18.6961 21.8406 18.4242C22.0038 18.1523 22.0919 15.623 22.1463 13.5923C22.2006 11.5598 22.255 9.93422 22.255 9.93422L22.4988 9.20297C22.4988 9.20297 22.4463 7.22672 22.4369 7.00922C22.42 6.64922 22.3806 6.46359 22.2888 6.50859C22.1575 6.57047 21.0625 7.46859 18.1638 8.87859C16.3431 9.76172 12.4188 11.1342 12.3138 11.423Z" fill="#E07F14"/>
<path d="M12.3429 2.10139C11.531 2.06389 9.30913 3.34826 7.16788 4.05139C5.02663 4.75451 1.79413 6.16826 1.76601 6.25076C1.73976 6.33139 3.06726 6.92576 3.91476 7.33264C4.92163 7.81451 8.76538 9.63514 9.46851 9.93326C10.1735 10.2314 11.8535 10.9289 12.1235 10.9083C12.5023 10.882 16.0798 9.47201 17.8948 8.60576C19.7098 7.73951 21.9785 6.39701 22.0085 6.07076C22.0216 5.92451 18.671 4.67389 17.0004 3.91826C13.7754 2.45764 12.9373 2.12951 12.3429 2.10139Z" fill="#FDD717"/>
<path d="M1.52281 9.33207C1.55094 9.68457 1.74406 9.81019 2.23531 10.0239C2.72656 10.2377 12.0134 15.0621 12.2272 15.0621C12.4409 15.0621 12.5047 14.2971 12.2703 14.3177C12.1428 14.3289 9.09219 12.8796 6.24219 11.4321C3.82344 10.2058 1.50781 8.98145 1.50781 8.98145L1.52281 9.33207Z" fill="#E37D14"/>
<path d="M22.5016 9.18555C22.5016 9.18555 12.5847 14.2293 12.4872 14.278C12.3897 14.3268 12.2341 14.3099 12.2341 14.3099L12.2266 15.0618C12.2266 15.0618 12.3184 15.0824 12.4216 15.0505C12.4816 15.0318 22.2147 9.99367 22.2578 9.97867C22.3009 9.96367 22.4884 9.85117 22.5278 9.61305C22.5616 9.4218 22.5016 9.18555 22.5016 9.18555Z" fill="#BA5E0D"/>
<path d="M5.41234 18.2664L7.35297 21.1539L8.20234 21.4445C8.20234 21.4445 8.27172 18.2945 8.29984 15.9601C8.33922 12.5495 8.32422 9.43887 8.37297 9.26262C8.45359 8.96449 12.228 7.74012 12.228 7.74012C12.228 7.74012 16.4917 9.07699 16.6267 9.37512C16.6867 9.50637 16.6398 11.7151 16.6267 14.2895C16.6098 17.5407 16.6155 21.2945 16.6155 21.2945C16.6155 21.2945 17.0561 21.2926 17.1086 21.1295C17.163 20.9664 17.3805 19.7082 17.3805 19.7082L19.0342 8.68512L19.8742 7.60137L18.708 5.38137L13.923 3.02637L12.2786 3.39574L10.4992 3.12387L4.85547 7.17949L5.51359 8.51449L7.12797 9.33762L5.41234 18.2664Z" fill="#AF0F1B"/>
<path d="M17.1152 9.2602C17.012 9.48707 17.072 21.1777 17.072 21.1777C17.072 21.1777 17.5877 20.8927 18.2514 20.5739C18.9114 20.2571 19.3858 20.0602 19.427 19.8952C19.4683 19.7302 19.5414 8.16895 19.5414 8.16895L17.1152 9.2602Z" fill="#DC0D28"/>
<path d="M7.75422 9.01875C7.81609 9.08625 7.71484 21.2175 7.58922 21.2456C7.48984 21.27 5.23047 20.2613 5.23047 20.1581C5.23047 20.055 5.41234 8.46188 5.41234 8.46188C5.41234 8.46188 7.57047 8.8125 7.75422 9.01875ZM12.2317 2.67188C11.6073 2.67188 10.9173 2.85 10.7167 3.37313C10.5161 3.89625 10.4711 4.67438 10.4711 5.25563C10.4711 5.8125 10.3811 7.2375 12.0967 7.215C13.8123 7.1925 13.863 6.55688 13.8892 5.15438C13.9117 3.98438 13.7561 3.41625 13.6005 3.1725C13.4617 2.95313 13.0005 2.67188 12.2317 2.67188Z" fill="#FF2A23"/>
<path d="M11.237 5.56723C11.627 5.58973 11.7939 4.73286 12.0939 4.26411C12.3939 3.79723 12.707 3.48411 12.5945 3.24036C12.5026 3.03786 11.687 2.97224 11.2464 3.58536C10.937 4.01849 10.8826 5.54661 11.237 5.56723Z" fill="#FCC9D2"/>
<path d="M13.75 3.07901C13.75 3.07901 14.3031 3.64151 14.4475 4.74401C14.5919 5.84651 14.425 6.70339 14.425 6.70339C14.425 6.70339 17.1738 6.62089 18.1225 6.80276C19.0581 6.98464 19.3844 7.39714 19.3844 7.69714C19.3844 7.99714 18.7694 8.23901 18.145 8.19401C17.5206 8.14901 17.0987 8.11526 17.02 8.27276C16.9412 8.43026 17.0538 8.67401 17.9219 8.73964C18.79 8.80714 19.7931 8.68339 20.1044 7.60339C20.4156 6.52339 20.4269 4.65214 20.3162 3.30401C20.2056 1.95589 19.9619 1.18526 19.3581 0.892765C18.7225 0.58714 17.1306 0.536514 15.6269 1.38214C14.1231 2.22776 13.75 3.07901 13.75 3.07901Z" fill="#FF2A23"/>
<path d="M16.8632 1.79599C16.6682 1.54474 16.0401 1.55224 15.7044 1.94036C15.3482 2.35286 15.2694 3.92224 15.7269 4.01224C16.2444 4.11349 16.1507 3.26599 16.5294 2.74286C16.9007 2.23099 17.0526 2.04161 16.8632 1.79599Z" fill="#FCC9D2"/>
<path d="M10.5698 3.13312C10.5698 3.13312 8.46413 0.678746 6.0585 0.716246C4.611 0.738746 4.2435 1.57312 4.16475 1.91812C4.086 2.26312 3.48601 5.69437 4.28663 7.5525C5.08725 9.41062 6.7485 8.92875 7.00913 8.86875C7.34288 8.79 8.0535 8.54625 7.986 8.28937C7.9185 8.0325 5.55788 8.95687 5.53538 7.89937C5.51288 6.84187 7.206 6.72937 7.986 6.70687C8.766 6.68437 10.1029 6.8625 10.1029 6.8625C10.1029 6.8625 9.8685 5.58187 10.0241 4.66875C10.1798 3.75562 10.5698 3.13312 10.5698 3.13312Z" fill="#FF2A23"/>
<path d="M5.41434 1.60657C5.11434 1.91782 4.99059 3.7122 5.17996 4.60282C5.36934 5.49345 5.53621 5.8722 5.92621 5.79532C6.25246 5.7297 6.44934 3.9822 6.60496 3.3672C6.77184 2.71095 7.18434 2.01345 7.01746 1.70782C6.76246 1.23907 5.72746 1.2822 5.41434 1.60657Z" fill="#FCC9D2"/>
</svg>
