<svg viewBox="0 0 24 24" fill="none" xmlns="http://www.w3.org/2000/svg">
<g clip-path="url(#clip0_494_1929)">
<path fill-rule="evenodd" clip-rule="evenodd" d="M23.9991 13.5976C23.9987 11.6546 23.3695 9.76398 22.2057 8.20822C21.0418 6.65245 19.4057 5.51513 17.542 4.96622C15.6783 4.41732 13.687 4.48632 11.8657 5.16291C10.0444 5.8395 8.49101 7.08734 7.43761 8.71994C6.38421 10.3525 5.88741 12.2822 6.02145 14.2205C6.15549 16.1589 6.91319 18.0018 8.18128 19.4738C9.44938 20.9459 11.1598 21.968 13.0568 22.3874C14.9539 22.8068 16.9358 22.6011 18.7062 21.8008C20.2157 22.1488 21.8416 22.4488 22.5892 22.5832C22.7802 22.6173 22.9767 22.6044 23.1617 22.5456C23.3466 22.4868 23.5145 22.3838 23.6507 22.2456C23.7869 22.1073 23.8874 21.938 23.9435 21.7522C23.9996 21.5664 24.0097 21.3697 23.9727 21.1792C23.7301 19.9157 23.4576 18.6582 23.1556 17.4076C23.712 16.2146 23.9999 14.914 23.9991 13.5976Z" fill="url(#paint0_radial_494_1929)"/>
<path fill-rule="evenodd" clip-rule="evenodd" d="M1.7663e-06 9.998C0.000434121 8.05503 0.6296 6.16437 1.79347 4.60861C2.95733 3.05284 4.59339 1.91552 6.45712 1.36661C8.32085 0.817712 10.3122 0.886712 12.1334 1.5633C13.9547 2.23989 15.5081 3.48773 16.5615 5.12033C17.6149 6.75292 18.1117 8.6826 17.9777 10.6209C17.8436 12.5593 17.0859 14.4022 15.8178 15.8742C14.5497 17.3463 12.8394 18.3684 10.9423 18.7878C9.04522 19.2072 7.06337 19.0014 5.29294 18.2012C3.78342 18.5492 2.1575 18.8492 1.40993 18.9836C1.21888 19.0177 1.0224 19.0048 0.837453 18.946C0.652509 18.8872 0.484673 18.7842 0.34845 18.646C0.212227 18.5077 0.111716 18.3384 0.0556047 18.1526C-0.000506475 17.9668 -0.01053 17.7701 0.0264006 17.5796C0.269018 16.3161 0.541481 15.0586 0.843561 13.808C0.287131 12.615 -0.000822898 11.3144 1.7663e-06 9.998Z" fill="url(#paint1_linear_494_1929)"/>
<path d="M6.10776 6.27383C6.42454 5.68943 6.84332 5.24903 7.3725 4.96583C7.89327 4.68863 8.45364 4.59863 8.99962 4.59863C9.63199 4.59863 10.3652 4.80623 10.9579 5.29223C11.5783 5.79863 11.9995 6.57863 11.9995 7.59743C11.9995 8.76743 11.1727 9.40223 10.7071 9.75983L10.6051 9.83903C10.0964 10.2386 9.89957 10.4534 9.89957 10.8974C9.89957 11.1361 9.80476 11.365 9.63598 11.5338C9.46721 11.7026 9.2383 11.7974 8.99962 11.7974C8.76093 11.7974 8.53203 11.7026 8.36325 11.5338C8.19448 11.365 8.09966 11.1361 8.09966 10.8974C8.09966 9.53663 8.95282 8.84783 9.49399 8.42303C10.1096 7.93943 10.1996 7.83143 10.1996 7.59743C10.1996 7.12103 10.022 6.85223 9.81678 6.68423C9.58456 6.50013 9.29715 6.39953 9.00082 6.39863C8.64564 6.39863 8.40205 6.45743 8.22086 6.55463C8.04926 6.64583 7.86687 6.80663 7.69048 7.13063C7.57204 7.33119 7.38045 7.47802 7.156 7.54025C6.93154 7.60247 6.69171 7.57525 6.48691 7.4643C6.28211 7.35335 6.1283 7.16731 6.05782 6.9453C5.98734 6.7233 6.00447 6.48261 6.10776 6.27383ZM9.00082 12.9974C9.31906 12.9974 9.62427 13.1239 9.8493 13.3489C10.0743 13.5739 10.2008 13.8792 10.2008 14.1974C10.2008 14.5157 10.0743 14.8209 9.8493 15.046C9.62427 15.271 9.31906 15.3974 9.00082 15.3974C8.68257 15.3974 8.37736 15.271 8.15233 15.046C7.9273 14.8209 7.80088 14.5157 7.80088 14.1974C7.80088 13.8792 7.9273 13.5739 8.15233 13.3489C8.37736 13.1239 8.68257 12.9974 9.00082 12.9974Z" fill="url(#paint2_linear_494_1929)"/>
</g>
<defs>
<radialGradient id="paint0_radial_494_1929" cx="0" cy="0" r="1" gradientUnits="userSpaceOnUse" gradientTransform="translate(10.8322 9.40361) rotate(49.2455) scale(12.6879 12.6982)">
<stop offset="0.63" stop-color="#3D35B1"/>
<stop offset="0.85" stop-color="#6553C9"/>
<stop offset="1" stop-color="#7660D3"/>
</radialGradient>
<linearGradient id="paint1_linear_494_1929" x1="1.99482e-06" y1="0.997998" x2="18.0036" y2="18.9971" gradientUnits="userSpaceOnUse">
<stop stop-color="#0FAFFF"/>
<stop offset="1" stop-color="#2764E7"/>
</linearGradient>
<linearGradient id="paint2_linear_494_1929" x1="6.52414" y1="4.78823" x2="9.59507" y2="15.7838" gradientUnits="userSpaceOnUse">
<stop stop-color="#FDFDFD"/>
<stop offset="1" stop-color="#CCEAFF"/>
</linearGradient>
<clipPath id="clip0_494_1929">
<rect width="24" height="24" fill="white"/>
</clipPath>
</defs>
</svg>
