<svg viewBox="0 0 36 36" fill="none" xmlns="http://www.w3.org/2000/svg">
<path class="text-accent-300" d="M30.9866 21.2321C31.8146 21.2321 32.6087 20.9032 33.1942 20.3177C33.7797 19.7322 34.1086 18.9381 34.1086 18.1101C34.1086 17.2821 33.7797 16.4881 33.1942 15.9026C32.6087 15.3171 31.8146 14.9882 30.9866 14.9882C30.1586 14.9882 29.3646 15.3171 28.7791 15.9026C28.1936 16.4881 27.8647 17.2821 27.8647 18.1101C27.8647 18.9381 28.1936 19.7322 28.7791 20.3177C29.3646 20.9032 30.1586 21.2321 30.9866 21.2321Z"/>
<path class="text-accent-50" fill-rule="evenodd" clip-rule="evenodd" d="M18.8906 2.50001C22.9533 2.49446 26.865 4.03991 29.8268 6.82079L18.5004 18.1098L30.1335 29.8842C27.1422 32.8467 23.1006 34.5059 18.8906 34.5C10.0539 34.5 2.89062 27.3367 2.89062 18.5C2.89062 9.66332 10.0539 2.50001 18.8906 2.50001ZM14.5979 9.52438C14.5979 8.66228 13.8991 7.96341 13.037 7.96341C12.1749 7.96341 11.476 8.66228 11.476 9.52438V11.0854H9.91501C9.05291 11.0854 8.35403 11.7842 8.35403 12.6463C8.35403 13.5084 9.05291 14.2073 9.91501 14.2073H11.476V15.7683C11.476 16.6304 12.1749 17.3293 13.037 17.3293C13.8991 17.3293 14.5979 16.6304 14.5979 15.7683V14.2073H16.1589C17.021 14.2073 17.7199 13.5084 17.7199 12.6463C17.7199 11.7842 17.021 11.0854 16.1589 11.0854H14.5979V9.52438Z"/>
</svg>
