<svg viewBox="0 0 24 24" fill="none" xmlns="http://www.w3.org/2000/svg">
<path d="M15.6732 11.3885C15.2122 11.265 14.721 11.3296 14.3076 11.5681C13.8943 11.8066 13.5925 12.1996 13.4688 12.6605L12.6924 15.5585C12.3796 16.7826 12.5621 18.0806 13.2001 19.1711C13.8382 20.2615 14.8805 21.0564 16.1009 21.3834C17.3213 21.7103 18.6214 21.5429 19.7191 20.9175C20.8169 20.292 21.6238 19.259 21.9648 18.0425L22.7412 15.1457C22.8648 14.6847 22.8002 14.1935 22.5616 13.7801C22.3231 13.3668 21.9302 13.065 21.4692 12.9413L15.6732 11.3885Z" fill="url(#paint0_radial_494_1915)"/>
<path d="M8.32969 11.3885C8.79068 11.265 9.28187 11.3296 9.69525 11.5681C10.1086 11.8066 10.4104 12.1996 10.5341 12.6605L11.3105 15.5585C11.4819 16.17 11.5303 16.8093 11.4528 17.4396C11.3754 18.0699 11.1736 18.6785 10.8593 19.2303C10.5449 19.782 10.1242 20.2659 9.62152 20.6539C9.11882 21.0419 8.54414 21.3263 7.93075 21.4907C7.31736 21.655 6.67746 21.696 6.04812 21.6112C5.41878 21.5265 4.81251 21.3177 4.26443 20.997C3.71635 20.6763 3.23736 20.25 2.85519 19.7428C2.47303 19.2357 2.1953 18.6578 2.03809 18.0425L1.26049 15.1457C1.19934 14.9174 1.18376 14.6792 1.21465 14.4448C1.24554 14.2105 1.32229 13.9845 1.44052 13.7798C1.55875 13.5751 1.71614 13.3957 1.90371 13.2518C2.09128 13.108 2.30534 13.0024 2.53369 12.9413L8.32969 11.3885Z" fill="url(#paint1_radial_494_1915)"/>
<path d="M11.9984 2.40039C11.0437 2.40039 10.128 2.77968 9.45285 3.45481C8.77772 4.12994 8.39844 5.04561 8.39844 6.00039C8.39844 6.95517 8.77772 7.87084 9.45285 8.54597C10.128 9.22111 11.0437 9.60039 11.9984 9.60039C12.9532 9.60039 13.8689 9.22111 14.544 8.54597C15.2192 7.87084 15.5984 6.95517 15.5984 6.00039C15.5984 5.04561 15.2192 4.12994 14.544 3.45481C13.8689 2.77968 12.9532 2.40039 11.9984 2.40039Z" fill="url(#paint2_radial_494_1915)"/>
<path d="M19.8008 4.80078C19.0051 4.80078 18.2421 5.11685 17.6795 5.67946C17.1169 6.24207 16.8008 7.00513 16.8008 7.80078C16.8008 8.59643 17.1169 9.35949 17.6795 9.9221C18.2421 10.4847 19.0051 10.8008 19.8008 10.8008C20.5964 10.8008 21.3595 10.4847 21.9221 9.9221C22.4847 9.35949 22.8008 8.59643 22.8008 7.80078C22.8008 7.00513 22.4847 6.24207 21.9221 5.67946C21.3595 5.11685 20.5964 4.80078 19.8008 4.80078Z" fill="url(#paint3_radial_494_1915)"/>
<path d="M4.19922 4.80078C3.40357 4.80078 2.64051 5.11685 2.0779 5.67946C1.51529 6.24207 1.19922 7.00513 1.19922 7.80078C1.19922 8.59643 1.51529 9.35949 2.0779 9.9221C2.64051 10.4847 3.40357 10.8008 4.19922 10.8008C4.99487 10.8008 5.75793 10.4847 6.32054 9.9221C6.88315 9.35949 7.19922 8.59643 7.19922 7.80078C7.19922 7.00513 6.88315 6.24207 6.32054 5.67946C5.75793 5.11685 4.99487 4.80078 4.19922 4.80078Z" fill="url(#paint4_radial_494_1915)"/>
<path d="M8.99922 10.8008C8.52183 10.8008 8.06399 10.9904 7.72643 11.328C7.38886 11.6656 7.19922 12.1234 7.19922 12.6008V16.8008C7.19922 18.0738 7.70493 19.2947 8.60511 20.1949C9.50528 21.0951 10.7262 21.6008 11.9992 21.6008C13.2723 21.6008 14.4932 21.0951 15.3933 20.1949C16.2935 19.2947 16.7992 18.0738 16.7992 16.8008V12.6008C16.7992 12.1234 16.6096 11.6656 16.272 11.328C15.9344 10.9904 15.4766 10.8008 14.9992 10.8008H8.99922Z" fill="url(#paint5_radial_494_1915)"/>
<defs>
<radialGradient id="paint0_radial_494_1915" cx="0" cy="0" r="1" gradientUnits="userSpaceOnUse" gradientTransform="translate(16.0159 14.2074) rotate(78.837) scale(7.53743 7.53743)">
<stop stop-color="#0078D4"/>
<stop offset="1" stop-color="#004695"/>
</radialGradient>
<radialGradient id="paint1_radial_494_1915" cx="0" cy="0" r="1" gradientUnits="userSpaceOnUse" gradientTransform="translate(3.71789 11.8074) rotate(61.056) scale(11.1928 8.0566)">
<stop stop-color="#008CE2"/>
<stop offset="1" stop-color="#0068C6"/>
</radialGradient>
<radialGradient id="paint2_radial_494_1915" cx="0" cy="0" r="1" gradientUnits="userSpaceOnUse" gradientTransform="translate(11.3057 4.92832) rotate(59.931) scale(4.4972)">
<stop offset="0.339" stop-color="#3DCBFF"/>
<stop offset="1" stop-color="#14B1FF"/>
</radialGradient>
<radialGradient id="paint3_radial_494_1915" cx="0" cy="0" r="1" gradientUnits="userSpaceOnUse" gradientTransform="translate(18.8382 6.48285) rotate(78.837) scale(4.40105)">
<stop stop-color="#0078D4"/>
<stop offset="1" stop-color="#004695"/>
</radialGradient>
<radialGradient id="paint4_radial_494_1915" cx="0" cy="0" r="1" gradientUnits="userSpaceOnUse" gradientTransform="translate(2.93606 6.61942) rotate(47.573) scale(4.91969)">
<stop stop-color="#008CE2"/>
<stop offset="1" stop-color="#0068C6"/>
</radialGradient>
<radialGradient id="paint5_radial_494_1915" cx="0" cy="0" r="1" gradientUnits="userSpaceOnUse" gradientTransform="translate(11.0752 14.5928) rotate(62.7688) scale(6.56569 6.16076)">
<stop offset="0.339" stop-color="#3DCBFF"/>
<stop offset="1" stop-color="#14B1FF"/>
</radialGradient>
</defs>
</svg>
