<svg xmlns="http://www.w3.org/2000/svg" viewBox="0 0 24 24" fill="none">
  <path d="M15.673 11.388a1.8 1.8 0 0 0-2.204 1.272l-.777 2.898a4.8 4.8 0 0 0 9.273 2.484l.776-2.897a1.8 1.8 0 0 0-1.272-2.204z" fill="#0078D4"/>
  <path d="M19.799 4.8a3 3 0 1 0 0 6 3 3 0 0 0 0-6" fill="#0078D4"/>
  <path d="M8.33 11.388a1.8 1.8 0 0 1 2.204 1.272l.776 2.898a4.8 4.8 0 1 1-9.272 2.484l-.778-2.897a1.8 1.8 0 0 1 1.274-2.204z" fill="#008CE2"/>
  <path d="M4.2 4.8a3 3 0 1 0 0 6 3 3 0 0 0 0-6" fill="#008CE2"/>
  <path d="M12 2.4a3.6 3.6 0 1 0 0 7.2 3.6 3.6 0 0 0 0-7.2" fill="#3DCBFF"/>
  <path d="M9 10.8a1.8 1.8 0 0 0-1.8 1.8v4.2a4.8 4.8 0 0 0 9.6 0v-4.2a1.8 1.8 0 0 0-1.8-1.8z" fill="#3DCBFF"/>
</svg>