<svg  viewBox="0 0 24 24" fill="none" xmlns="http://www.w3.org/2000/svg">
<path d="M23.0566 7.32938C22.4523 5.90045 21.5874 4.61725 20.4851 3.51494C19.3835 2.41335 18.0996 1.54838 16.6714 0.943391C15.1919 0.317917 13.6201 0 12 0C10.3802 0 8.80851 0.31787 7.32899 0.943391C5.90006 1.54838 4.61649 2.41335 3.51452 3.51494C2.41297 4.61725 1.54763 5.90045 0.943342 7.32938C0.317541 8.80885 0 10.3807 0 12C0 13.6201 0.317494 15.1919 0.943389 16.6714C1.54763 18.1004 2.41301 19.3835 3.51456 20.4859C4.61649 21.5875 5.90006 22.4531 7.32904 23.0574C8.80856 23.6829 10.3803 24 12 24C13.6201 24 15.192 23.6828 16.6714 23.0574C18.0997 22.4531 19.3835 21.5875 20.4851 20.4859C21.5875 19.3835 22.4524 18.1004 23.0566 16.6714C23.6821 15.1919 24 13.6201 24 12C24 10.3807 23.6821 8.80885 23.0566 7.32938Z" fill="#FFCE54"/>
<path d="M19.0718 4.92924C17.1837 3.0403 14.6722 2.00025 12.0011 2.00025C9.32997 2.00025 6.81885 3.0403 4.92991 4.92919C3.0414 6.81813 2.00098 9.32958 2.00098 12C2.00098 14.6711 3.0414 17.1826 4.92991 19.0715C6.8188 20.9605 9.32992 22.0004 12.0011 22.0004C14.6722 22.0004 17.1837 20.9604 19.0718 19.0715C20.9608 17.1826 22.0015 14.6711 22.0015 12C22.0015 9.32958 20.9608 6.81813 19.0718 4.92924Z" fill="#ED5564"/>
<path d="M8.17018 21.2439C9.36768 21.7405 10.6634 22.0005 11.9989 22.0005V12.0008L8.17018 21.2439Z" fill="#434A54"/>
<path d="M15.8281 2.75684C14.6298 2.26027 13.3348 2.00025 11.9989 2.00025V12.0008L15.8281 2.75684Z" fill="#434A54"/>
<path d="M15.8281 21.2439C17.0255 20.7481 18.1257 20.0156 19.0697 19.0715L11.9989 12.0008L15.8281 21.2439Z" fill="#434A54"/>
<path d="M8.17018 2.75684C6.9723 3.2527 5.8722 3.98509 4.92773 4.92924L11.9989 12.0008L8.17018 2.75684Z" fill="#434A54"/>
<path d="M21.2439 15.8291C21.7397 14.6316 22.0004 13.336 22.0004 12H12L21.2439 15.8291Z" fill="#A0D468"/>
<path d="M2.75719 8.17161C2.261 9.36912 2.00098 10.6648 2.00098 12L12.0011 12L2.75719 8.17161Z" fill="#434A54"/>
<path d="M21.245 8.17161C20.7491 6.97335 20.0167 5.87403 19.0718 4.92924L12.0011 12L21.245 8.17161Z" fill="#434A54"/>
<path d="M2.75719 15.8291C3.25338 17.0273 3.98582 18.1274 4.92991 19.0715L12.0011 12L2.75719 15.8291Z" fill="#434A54"/>
<path d="M16.4505 12.0007C16.4505 14.458 14.4584 16.4509 12.0003 16.4509C9.54234 16.4509 7.5498 14.458 7.5498 12.0007C7.5498 9.54273 9.54238 7.54982 12.0003 7.54982C14.4583 7.54982 16.4505 9.54273 16.4505 12.0007Z" fill="#FFCE54"/>
<path d="M16.3546 6.35398C16.1597 6.5495 15.8427 6.5495 15.6471 6.35398C15.4523 6.15916 15.4523 5.84199 15.6471 5.64718C15.8427 5.45161 16.1597 5.45161 16.3546 5.64718C16.5494 5.84199 16.5494 6.15916 16.3546 6.35398Z" fill="#E6E9ED"/>
<path d="M12 15C11.7239 15 11.5001 14.7766 11.5001 14.5005V9.50024C11.5001 9.22409 11.7238 9.00002 12 9.00002C12.2761 9.00002 12.4999 9.22413 12.4999 9.50024V14.5005C12.4999 14.7766 12.2761 15 12 15Z" fill="#434A54"/>
<path d="M14.5005 12.5002H9.49989C9.22374 12.5002 9 12.2768 9 12C9 11.7246 9.22374 11.5005 9.49989 11.5005H14.5005C14.7759 11.5005 15 11.7246 15 12C15 12.2768 14.7759 12.5002 14.5005 12.5002Z" fill="#434A54"/>
<path d="M12 10.5C11.1727 10.5 10.5 11.1731 10.5 12C10.5 12.8277 11.1727 13.5 12 13.5C12.8276 13.5 13.5 12.8277 13.5 12C13.5 11.1731 12.8276 10.5 12 10.5Z" fill="#656D78"/>
</svg>
