<svg viewBox="0 0 24 24" fill="none" xmlns="http://www.w3.org/2000/svg">
<g clip-path="url(#clip0_553_2643)">
<path fill-rule="evenodd" clip-rule="evenodd" d="M12 24C18.6274 24 24 18.6274 24 12C24 5.37258 18.6274 0 12 0C5.37258 0 0 5.37258 0 12C0 18.6274 5.37258 24 12 24ZM17.9854 9.37012C18.4228 8.72831 18.2571 7.85348 17.6153 7.41609C16.9736 6.9787 16.0988 7.14436 15.6614 7.78613L11.219 14.3041L8.71439 11.958C8.14758 11.4271 7.25766 11.4562 6.72675 12.023C6.1958 12.5898 6.22486 13.4797 6.79167 14.0107L10.0953 17.1052C10.935 17.8918 12.2785 17.7435 12.9265 16.7928L17.9854 9.37012Z" fill="currentColor"/>
</g>
<defs>
<clipPath id="clip0_553_2643">
<rect width="24" height="24" fill="white"/>
</clipPath>
</defs>
</svg>
