<svg viewBox="0 0 512 512" fill="none" xmlns="http://www.w3.org/2000/svg">
  <path d="M188.632 0H0V39.954L188.632 163.54V0Z" fill="#41479B"/>
  <path d="M0 136.598V188.632H79.419L0 136.598Z" fill="#41479B"/>
  <path d="M0 323.369V375.402L79.419 323.369H0Z" fill="#41479B"/>
  <path d="M512 39.954V0H323.368V163.54L512 39.954Z" fill="#41479B"/>
  <path d="M512 375.402V323.369H432.581L512 375.402Z" fill="#41479B"/>
  <path d="M323.368 348.46V512H512V472.046L323.368 348.46Z" fill="#41479B"/>
  <path d="M512 188.632V136.598L432.581 188.632H512Z" fill="#41479B"/>
  <path d="M0 472.046V512H188.632V348.46L0 472.046Z" fill="#41479B"/>
  <path d="M512 472.046L512 432.118L344.465 323.369H393.961L512 399.989L512 375.402L432.581 323.369H512L512 296.421H296.421V512L323.368 512V348.46L512 472.046Z" fill="#F5F5F5"/>
  <path d="M0 296.421V323.369H79.419L0 375.402V413.203L138.395 323.369H187.891L0 445.332V472.046L188.632 348.46V512L215.579 512V296.421H0Z" fill="#F5F5F5"/>
  <path d="M215.579 0H188.632V163.54L0 39.954V83.679L161.684 188.632H112.188L0 115.807V136.598L79.419 188.632H0V215.579H215.579V0Z" fill="#F5F5F5"/>
  <path d="M512 215.579L512 188.632H432.581L512 136.598L512 98.314L372.864 188.632H323.368L512 66.185L512 39.954L323.368 163.54V0H296.421V215.579H512Z" fill="#F5F5F5"/>
  <path d="M512 296.421V215.579H296.421V0H215.579V215.579H0V296.421H215.579V512H296.421V296.421H512Z" fill="#FF4B55"/>
  <path d="M138.395 323.369L0 413.203V445.332L187.891 323.369H138.395Z" fill="#FF4B55"/>
  <path d="M344.465 323.369L512 432.118V399.989L393.961 323.369H344.465Z" fill="#FF4B55"/>
  <path d="M161.684 188.632L0 83.679V115.807L112.188 188.632H161.684Z" fill="#FF4B55"/>
  <path d="M372.864 188.632L512 98.314V66.185L323.368 188.632H372.864Z" fill="#FF4B55"/>
</svg>